<?xml version="1.0" standalone="no"?>
<!DOCTYPE svg PUBLIC "-//W3C//DTD SVG 20010904//EN"
 "http://www.w3.org/TR/2001/REC-SVG-20010904/DTD/svg10.dtd">
<svg version="1.0" xmlns="http://www.w3.org/2000/svg"
 width="2073.000000pt" height="2073.000000pt" viewBox="0 0 2073.000000 2073.000000"
 preserveAspectRatio="xMidYMid meet">
<metadata>
Created by potrace 1.11, written by Peter Selinger 2001-2013
</metadata>
<g transform="translate(0.000000,2073.000000) scale(0.100000,-0.100000)"
fill="#000000" stroke="none">
<path d="M18355 17839 c-11 -16 -19 -34 -17 -40 1 -5 -2 -8 -7 -6 -5 1 -28
-27 -52 -63 -24 -36 -48 -68 -54 -72 -6 -5 -6 -8 0 -8 5 0 -1 -7 -13 -16 -15
-10 -21 -22 -17 -32 3 -9 3 -13 -1 -10 -8 8 -44 -34 -44 -51 0 -6 -5 -11 -11
-11 -5 0 -8 -4 -5 -9 3 -5 -1 -11 -9 -15 -8 -3 -15 -12 -15 -21 0 -8 -7 -15
-16 -15 -8 0 -12 -5 -9 -10 3 -6 -1 -13 -9 -16 -9 -3 -14 -9 -11 -14 2 -4 -5
-16 -15 -28 -11 -12 -20 -26 -20 -32 0 -6 -6 -13 -14 -16 -8 -3 -19 -19 -25
-35 -5 -16 -15 -29 -20 -29 -6 0 -11 -7 -11 -15 0 -8 -5 -15 -11 -15 -5 0 -8
-4 -5 -9 3 -5 -1 -11 -9 -15 -8 -3 -15 -12 -15 -20 0 -7 -7 -16 -15 -20 -8 -3
-15 -12 -15 -21 0 -8 -4 -15 -10 -15 -5 0 -12 -11 -16 -25 -3 -14 -9 -23 -14
-20 -4 2 -13 -8 -21 -23 -22 -43 -46 -72 -54 -64 -3 4 -6 3 -5 -3 5 -22 -1
-36 -12 -29 -6 4 -8 3 -4 -4 3 -6 2 -13 -4 -17 -6 -4 -7 -11 -4 -17 4 -6 3 -9
-2 -6 -11 7 -35 -17 -27 -26 4 -3 0 -6 -7 -6 -7 0 -10 -3 -7 -6 4 -4 -3 -15
-15 -25 -11 -11 -17 -19 -12 -19 5 0 1 -5 -9 -11 -9 -6 -15 -14 -12 -20 4 -5
1 -9 -4 -9 -6 0 -11 -7 -11 -16 0 -8 -4 -12 -10 -9 -5 3 -10 0 -10 -8 0 -8 -8
-23 -17 -35 -31 -36 -48 -64 -45 -74 1 -5 -1 -7 -6 -4 -4 2 -16 -11 -26 -29
-11 -19 -23 -32 -29 -28 -6 3 -7 1 -4 -4 4 -6 -5 -23 -18 -39 -14 -16 -25 -33
-25 -37 0 -14 -27 -37 -34 -29 -4 3 -4 -1 0 -11 3 -10 1 -17 -5 -17 -6 0 -11
-7 -11 -15 0 -8 -7 -15 -15 -15 -8 0 -12 -6 -9 -14 3 -7 -7 -23 -22 -35 -15
-12 -24 -24 -21 -28 4 -3 -6 -17 -21 -31 -15 -13 -20 -21 -12 -17 8 4 4 -3
-10 -14 -14 -11 -21 -21 -17 -21 5 0 2 -7 -5 -15 -26 -28 -34 -40 -41 -57 -3
-10 -11 -18 -17 -18 -6 0 -8 -4 -5 -10 3 -5 1 -10 -4 -10 -6 0 -11 -7 -11 -16
0 -8 -4 -12 -10 -9 -5 3 -10 -1 -10 -10 0 -8 -9 -23 -19 -32 -11 -9 -18 -20
-15 -25 3 -4 0 -8 -5 -8 -6 0 -11 -7 -11 -16 0 -8 -4 -12 -10 -9 -9 5 -14 -8
-7 -19 1 -2 -9 -15 -23 -28 -14 -12 -27 -27 -28 -33 -1 -5 -9 -18 -17 -28 -8
-9 -15 -21 -15 -26 0 -5 -7 -12 -16 -15 -9 -4 -14 -9 -11 -12 2 -3 -6 -17 -19
-31 -13 -14 -24 -32 -24 -39 0 -7 -11 -21 -25 -32 -13 -11 -21 -22 -18 -26 4
-3 -2 -13 -13 -21 -10 -8 -15 -15 -10 -15 4 0 -2 -9 -15 -20 -13 -10 -20 -19
-15 -20 5 0 -1 -9 -13 -19 -12 -11 -22 -23 -22 -28 0 -4 -9 -18 -19 -31 -11
-12 -20 -29 -20 -37 0 -9 -6 -12 -17 -8 -12 5 -15 2 -10 -10 3 -9 2 -17 -3
-17 -5 0 -11 -8 -14 -17 -5 -16 -20 -36 -66 -90 -6 -7 -8 -13 -5 -13 4 0 -11
-20 -50 -64 -5 -6 -11 -17 -13 -24 -1 -8 -13 -25 -27 -40 -13 -14 -22 -29 -19
-34 3 -4 1 -8 -4 -8 -6 0 -23 -20 -39 -45 -15 -25 -32 -45 -36 -45 -5 0 -6 -4
-3 -9 3 -5 -1 -11 -9 -15 -8 -3 -15 -10 -15 -16 0 -5 -8 -19 -17 -30 -10 -11
-17 -23 -15 -26 4 -8 -22 -32 -30 -27 -5 2 -8 -5 -8 -16 0 -12 -4 -21 -10 -21
-5 0 -12 -11 -16 -25 -3 -14 -10 -23 -14 -20 -5 3 -11 -3 -14 -12 -3 -10 -17
-31 -31 -47 -14 -16 -25 -35 -25 -42 0 -7 -9 -18 -20 -24 -11 -6 -18 -15 -15
-19 3 -5 -2 -12 -11 -15 -9 -4 -14 -9 -11 -12 6 -6 -6 -24 -35 -52 -10 -9 -18
-21 -18 -26 0 -5 -8 -15 -17 -23 -12 -10 -13 -12 -3 -8 10 4 9 2 -2 -8 -10 -8
-18 -17 -18 -21 0 -3 -9 -16 -20 -28 -10 -13 -19 -27 -19 -31 0 -5 -10 -17
-22 -28 -12 -10 -19 -19 -15 -19 4 0 -2 -10 -13 -21 -11 -12 -26 -35 -35 -53
-8 -17 -19 -31 -23 -31 -4 0 -6 -6 -5 -14 2 -7 -1 -10 -6 -7 -5 3 -15 -7 -23
-22 -8 -15 -20 -33 -26 -40 -7 -7 -13 -18 -13 -23 0 -6 -4 -7 -10 -4 -6 4 -7
-1 -3 -11 4 -12 3 -15 -5 -10 -7 4 -12 1 -12 -8 0 -9 -5 -16 -12 -16 -6 0 -9
-3 -5 -6 3 -3 -4 -17 -16 -31 -12 -13 -21 -27 -19 -30 2 -2 -6 -13 -17 -22
-12 -10 -21 -22 -21 -25 0 -4 -7 -14 -15 -23 -8 -8 -12 -19 -9 -25 4 -7 2 -8
-4 -4 -11 7 -17 -6 -13 -27 1 -5 -2 -6 -7 -3 -5 3 -15 -6 -22 -19 -7 -13 -18
-22 -23 -18 -6 3 -7 1 -3 -5 3 -6 -1 -18 -10 -26 -8 -9 -13 -16 -9 -16 3 0 -6
-12 -20 -27 -14 -15 -25 -34 -25 -41 0 -7 -6 -15 -14 -18 -8 -3 -22 -21 -31
-40 -9 -19 -20 -34 -25 -34 -6 0 -10 -9 -10 -21 0 -11 -5 -17 -10 -14 -6 3
-14 -5 -19 -18 -6 -14 -15 -28 -21 -32 -5 -3 -8 -11 -5 -16 4 -5 -1 -9 -10 -9
-9 0 -13 -4 -10 -10 3 -5 2 -10 -2 -10 -5 0 -17 -15 -28 -32 -10 -18 -25 -39
-32 -46 -7 -8 -10 -18 -7 -24 4 -6 2 -8 -4 -4 -6 3 -13 -3 -17 -14 -3 -11 -19
-33 -36 -49 -19 -20 -25 -31 -16 -34 7 -3 4 -6 -6 -6 -10 -1 -15 -5 -12 -11 3
-5 -1 -10 -9 -10 -9 0 -15 -3 -14 -7 3 -14 -25 -62 -33 -57 -5 3 -11 -6 -15
-20 -3 -13 -12 -27 -21 -30 -8 -3 -12 -10 -8 -15 3 -6 -3 -14 -12 -20 -10 -6
-14 -11 -9 -11 4 0 -2 -9 -15 -20 -13 -10 -20 -19 -16 -20 4 0 -4 -12 -18 -27
-14 -15 -25 -32 -25 -36 0 -5 -6 -14 -12 -21 -7 -8 -20 -24 -28 -36 -8 -12
-20 -28 -26 -34 -6 -7 -15 -22 -18 -34 -4 -12 -11 -20 -16 -17 -5 3 -11 -4
-15 -15 -3 -11 -11 -20 -16 -20 -5 0 -8 -6 -6 -12 1 -7 -3 -12 -10 -11 -8 2
-10 -4 -6 -14 4 -11 3 -14 -5 -9 -8 5 -12 0 -12 -13 0 -11 -6 -24 -13 -28 -8
-4 -17 -16 -20 -26 -4 -11 -12 -15 -18 -11 -7 4 -9 3 -5 -4 3 -6 1 -16 -6 -24
-7 -7 -24 -30 -38 -50 -13 -20 -29 -34 -34 -31 -5 3 -6 1 -2 -5 3 -6 -1 -18
-10 -26 -8 -9 -13 -16 -10 -16 3 0 -8 -14 -24 -32 -16 -17 -26 -36 -23 -41 4
-6 -1 -8 -11 -4 -9 4 -14 3 -11 -2 11 -18 -14 -21 -54 -7 -22 7 -38 9 -35 4 4
-6 -6 -2 -21 8 -24 15 -49 23 -92 26 -7 1 -13 5 -13 10 0 5 -4 7 -9 3 -5 -3
-12 -1 -16 4 -3 5 -14 8 -25 6 -11 -2 -20 0 -20 6 0 5 -14 9 -31 9 -16 0 -28
3 -25 8 2 4 -9 8 -26 9 -17 0 -34 6 -38 13 -6 9 -9 10 -15 0 -6 -9 -9 -9 -15
-1 -4 7 -17 13 -28 14 -12 1 -22 5 -22 9 0 4 -5 8 -11 8 -5 0 -8 -4 -4 -10 3
-5 -7 -3 -21 5 -15 8 -31 12 -36 9 -4 -3 -8 -1 -8 4 0 5 -19 12 -42 16 -23 4
-47 11 -54 17 -7 5 -16 9 -20 7 -17 -4 -79 15 -86 26 -6 8 -8 8 -8 0 0 -8 -10
-8 -35 0 -19 6 -35 15 -35 20 0 4 -6 3 -14 -3 -10 -8 -16 -9 -21 -1 -3 5 -16
10 -29 10 -12 0 -28 6 -34 12 -7 7 -28 11 -47 9 -19 -1 -35 1 -35 6 0 5 -8 9
-17 10 -41 3 -63 8 -63 14 0 3 -13 5 -30 4 -16 -1 -30 1 -30 4 0 4 -8 7 -17 8
-45 2 -109 16 -120 25 -9 7 -13 6 -13 -3 0 -12 -2 -12 -9 0 -5 8 -19 12 -35 9
-14 -3 -23 -2 -21 3 3 4 1 10 -4 13 -5 4 -12 2 -16 -4 -4 -7 -13 -7 -26 1 -12
6 -23 8 -26 5 -4 -3 -13 0 -21 7 -13 10 -14 9 -7 -2 6 -11 5 -12 -6 -5 -8 5
-23 9 -34 10 -11 1 -28 4 -37 8 -9 4 -22 5 -28 1 -5 -3 -10 -2 -10 4 0 6 -7 8
-15 5 -8 -4 -23 -3 -32 1 -17 7 -34 10 -129 18 -22 2 -45 6 -50 9 -10 5 -57
10 -121 12 -24 0 -43 3 -43 6 0 3 -14 7 -31 8 -22 2 -29 -1 -24 -10 4 -7 0 -5
-8 4 -10 13 -16 15 -25 6 -7 -7 -12 -8 -12 -2 0 5 -21 9 -46 9 -25 -1 -48 3
-51 8 -3 5 -9 3 -14 -4 -5 -8 -9 -9 -9 -4 0 6 -28 12 -62 14 -35 1 -79 3 -98
4 -19 1 -38 6 -42 12 -5 6 -8 5 -8 -3 0 -7 -4 -11 -9 -7 -19 11 -71 12 -71 1
0 -7 -3 -6 -8 2 -5 7 -19 11 -33 8 -13 -2 -32 1 -41 6 -12 6 -18 5 -18 -2 0
-6 -5 -8 -11 -4 -7 4 -24 7 -38 8 -26 1 -26 2 -29 84 l-3 82 -1019 0 -1020 0
0 -59 c0 -62 -10 -76 -42 -59 -13 6 -18 5 -18 -4 0 -10 -2 -10 -9 0 -4 8 -12
14 -16 14 -4 0 -12 -6 -16 -14 -7 -10 -9 -10 -9 0 0 9 -5 10 -19 3 -10 -6 -22
-7 -26 -3 -10 10 -29 9 -37 -3 -5 -6 -8 -5 -8 3 0 9 -5 10 -18 3 -10 -5 -24
-6 -32 -1 -8 5 -21 5 -31 -1 -11 -6 -20 -5 -24 1 -4 7 -12 7 -25 0 -11 -6 -21
-6 -24 -1 -7 10 -25 9 -42 -2 -6 -3 -14 -3 -18 0 -12 12 -56 11 -56 -1 0 -7
-3 -8 -8 -1 -4 6 -41 11 -82 11 -41 0 -78 -5 -82 -11 -5 -6 -8 -7 -8 0 0 12
-149 14 -167 2 -6 -4 -14 -3 -18 2 -3 6 -13 7 -22 4 -12 -5 -14 -3 -9 8 4 8 0
5 -8 -5 -9 -11 -16 -15 -16 -10 0 7 -47 10 -124 10 -69 0 -123 -3 -120 -7 2
-4 -6 -9 -17 -12 -12 -3 -18 -10 -14 -16 3 -6 2 -11 -3 -11 -14 0 -57 -41 -54
-51 1 -5 -3 -9 -8 -9 -6 0 -30 -20 -54 -45 -24 -24 -46 -41 -50 -38 -3 4 -6 1
-6 -6 0 -16 -26 -42 -34 -34 -3 4 -6 1 -6 -5 0 -7 -9 -21 -20 -32 -11 -11 -20
-17 -20 -12 0 4 -9 -6 -20 -23 -11 -16 -20 -27 -20 -22 0 4 -9 -2 -20 -13 -11
-11 -20 -25 -20 -32 0 -6 -3 -9 -6 -6 -3 3 -48 -36 -100 -88 -53 -52 -100 -94
-105 -94 -5 0 -8 -3 -7 -7 2 -5 -1 -9 -6 -10 -5 -1 -17 -14 -27 -30 -10 -15
-19 -25 -19 -21 0 3 -16 -10 -35 -29 -19 -19 -35 -39 -35 -44 0 -5 -4 -8 -8
-7 -4 2 -27 -16 -49 -39 -23 -24 -47 -43 -53 -43 -5 0 -9 -3 -8 -7 2 -5 -10
-20 -25 -35 -15 -15 -27 -24 -27 -20 -1 4 -7 -4 -15 -18 -8 -14 -14 -22 -15
-18 0 3 -47 -40 -105 -98 -58 -57 -110 -104 -116 -104 -5 0 -7 -4 -4 -10 3 -5
-1 -10 -9 -10 -9 0 -16 -7 -16 -16 0 -8 -3 -13 -7 -11 -10 5 -43 -30 -36 -37
4 -3 -4 -6 -16 -6 -13 0 -20 -4 -16 -11 4 -6 -2 -13 -14 -16 -11 -3 -19 -8
-16 -12 2 -4 -10 -18 -26 -32 -16 -13 -66 -59 -110 -101 -44 -43 -85 -78 -90
-78 -6 0 -7 -4 -4 -10 3 -5 -1 -10 -10 -10 -9 0 -13 -4 -10 -10 3 -5 -3 -10
-14 -10 -12 0 -20 -3 -19 -7 1 -5 -10 -21 -25 -37 -15 -16 -27 -25 -27 -20 0
5 -5 1 -11 -9 -6 -9 -14 -15 -20 -12 -5 4 -9 -3 -9 -14 0 -20 -5 -21 -317 -23
l-318 -3 -3 -847 c-1 -467 -3 -849 -5 -850 -1 -2 -384 -5 -852 -8 l-850 -5 -3
-867 -2 -868 -725 0 -725 0 -4 -22 c-3 -13 -10 -86 -16 -163 -6 -77 -15 -176
-21 -220 -11 -81 -6 -662 6 -797 8 -78 22 -69 -155 -98 -371 -59 -763 -55
-1070 11 -349 76 -703 258 -955 491 l-60 55 0 -101 c0 -98 -2 -105 -37 -177
-123 -248 -446 -416 -988 -514 l-125 -23 1716 -1 1716 -1 12 -62 c28 -141 32
-165 41 -203 100 -441 200 -724 388 -1102 96 -192 131 -252 254 -437 600 -897
1452 -1547 2518 -1921 160 -56 449 -140 600 -175 360 -82 644 -125 1075 -162
186 -16 1025 -16 1260 0 280 19 533 41 700 61 810 97 1634 289 2283 530 45 17
117 44 160 60 106 40 177 68 240 97 29 13 55 24 57 24 2 0 35 14 72 31 38 16
95 42 128 57 115 51 541 270 675 347 393 226 743 467 1094 754 398 325 830
762 1164 1177 183 229 498 679 602 862 l35 61 975 1 975 2 -115 23 c-555 112
-915 294 -1019 515 -22 46 -26 69 -26 145 0 50 4 101 9 115 6 17 -21 -4 -86
-65 -52 -50 -131 -116 -176 -148 -74 -54 -279 -177 -293 -177 -3 0 37 87 91
193 105 210 124 251 245 532 l82 190 279 6 c281 7 420 20 624 60 144 28 338
80 405 108 11 5 36 15 55 22 220 80 476 233 680 405 179 151 327 315 542 599
59 77 116 151 128 163 13 13 19 27 14 32 -5 5 -49 34 -99 66 -319 200 -613
308 -1000 365 -33 5 -143 16 -245 25 -256 22 -489 8 -765 -47 -55 -12 -124
-27 -153 -36 -64 -18 -82 -13 -82 24 0 51 -31 190 -68 313 -18 57 -30 92 -74
203 -53 138 -193 378 -316 542 -49 66 -86 122 -82 125 4 3 11 24 15 48 4 23
10 40 15 37 5 -3 7 3 5 12 -1 10 5 27 14 37 9 11 10 16 4 12 -17 -9 -17 16 -1
32 7 7 9 12 5 12 -4 0 -3 9 3 20 9 17 17 54 22 98 1 6 6 12 12 12 6 0 4 5 -4
10 -13 8 -12 10 4 10 15 0 16 3 7 14 -9 10 -9 16 -1 21 6 4 9 13 6 21 -3 8 -1
14 5 14 6 0 6 7 -1 20 -6 11 -7 20 -3 19 20 -3 23 2 12 22 -8 15 -8 19 0 15 9
-6 14 19 10 50 0 4 5 11 13 15 11 7 11 9 -1 9 -11 0 -10 5 3 25 14 21 14 24 1
19 -13 -5 -13 -3 -2 19 18 34 74 97 87 97 5 0 9 6 7 13 -1 6 4 11 10 10 7 -2
12 1 10 6 -1 5 15 25 35 45 20 20 35 36 32 36 -3 0 10 14 28 32 18 18 32 36
31 40 -2 4 2 8 7 8 13 0 50 37 43 43 -2 3 5 8 16 12 12 3 21 10 21 15 0 4 23
32 50 61 28 29 50 56 50 61 0 4 8 8 17 8 9 0 14 3 11 6 -3 3 9 21 28 39 19 19
34 39 34 45 0 5 6 9 13 7 6 -1 11 4 10 11 -2 6 4 12 12 12 8 0 15 4 15 9 0 5
16 25 35 44 19 19 35 41 35 48 0 7 3 10 6 6 5 -5 44 28 44 38 0 3 18 22 40 44
22 21 40 44 40 51 0 8 3 11 6 7 8 -7 33 15 28 25 -2 4 5 9 16 13 12 4 20 15
20 28 0 18 2 19 10 7 8 -12 10 -11 10 7 0 13 3 22 8 21 4 -1 23 14 44 35 20
20 34 37 32 37 -2 0 23 27 56 61 33 33 60 62 60 64 0 2 27 32 60 66 33 34 60
66 60 71 0 5 5 6 10 3 6 -3 10 0 10 8 0 8 7 18 16 21 8 3 13 10 9 15 -3 5 0
13 6 17 8 4 9 3 5 -4 -4 -7 -2 -12 3 -12 6 0 11 6 11 13 0 7 13 24 30 39 16
14 26 28 23 32 -4 4 2 9 14 12 12 3 24 15 26 26 3 11 10 17 16 13 6 -3 11 1
11 10 0 8 7 18 15 21 8 4 15 12 15 20 0 8 3 13 8 11 4 -1 9 3 11 8 8 17 29 35
42 35 7 0 10 3 6 6 -3 3 16 28 43 55 27 27 47 49 44 49 -2 0 5 9 16 20 11 11
25 20 32 20 6 0 8 3 5 7 -4 3 5 16 18 29 14 13 25 28 25 34 0 6 5 8 10 5 6 -3
10 -2 10 3 0 14 36 52 44 45 3 -3 6 -1 6 6 0 6 13 25 29 40 16 16 27 31 25 34
-3 3 4 8 15 12 12 3 21 11 21 16 0 5 24 34 53 63 95 98 137 146 137 156 0 6 5
8 11 5 6 -4 13 2 16 14 3 11 8 19 12 17 3 -2 12 2 19 10 7 8 10 14 7 14 -3 0
16 20 42 45 25 25 44 45 41 45 -4 0 8 15 25 33 18 18 35 31 40 29 4 -2 7 6 7
18 0 12 5 18 10 15 6 -3 10 -1 10 5 0 6 5 8 10 5 6 -3 10 3 10 15 0 12 3 19 8
17 4 -2 15 4 25 15 9 10 14 18 11 18 -4 0 19 24 50 54 31 30 56 59 56 65 0 6
5 11 11 11 5 0 7 5 4 10 -4 6 -3 10 2 9 17 -3 36 1 31 7 -3 3 11 22 33 43 21
21 35 41 32 45 -4 3 1 6 11 6 9 0 14 5 11 10 -3 6 1 10 9 10 9 0 16 4 16 9 0
4 17 26 37 47 21 21 36 42 35 47 -1 4 3 7 8 7 10 0 48 34 53 47 1 4 26 32 54
63 166 175 192 203 197 216 3 8 13 14 22 14 10 0 14 3 10 7 -3 4 19 31 51 62
31 30 50 51 42 46 -8 -5 14 19 49 53 35 34 60 62 56 62 -4 0 5 11 21 24 21 18
27 30 23 50 -3 14 -2 23 2 21 4 -3 6 19 4 47 -2 33 1 55 9 60 9 6 8 8 -2 8
-11 0 -11 3 0 17 8 9 9 14 3 10 -7 -4 -10 9 -10 38 1 25 5 45 9 45 5 0 5 6 0
13 -9 14 -11 77 -2 77 3 0 6 7 6 15 0 8 -4 15 -9 15 -5 0 -4 9 2 20 8 14 8 20
0 20 -7 0 -7 7 1 21 8 16 8 20 -1 14 -9 -6 -9 -3 -1 13 8 14 8 23 1 27 -8 5
-8 11 0 20 8 9 8 15 0 20 -7 4 -7 12 1 26 6 12 8 23 5 26 -3 4 0 13 7 21 7 10
8 13 1 9 -7 -4 -14 2 -17 13 -3 11 -2 18 3 15 4 -2 7 16 7 40 0 26 -5 45 -11
45 -6 0 -5 4 3 9 9 6 12 19 8 40 -4 18 -2 31 4 31 6 0 6 8 -2 21 -8 16 -8 20
1 14 9 -6 9 -2 0 15 -10 18 -9 24 1 31 11 7 11 9 -1 9 -12 0 -12 2 -1 9 10 7
11 13 2 30 -7 11 -8 21 -3 21 4 0 7 28 5 62 -2 42 1 64 9 70 10 6 10 8 0 8 -8
0 -10 8 -6 26 6 22 4 25 -7 19 -11 -7 -12 -6 -3 6 6 8 11 37 10 64 -1 28 3 56
8 63 5 8 4 12 -5 12 -11 0 -11 2 1 10 8 5 10 10 3 10 -12 0 -12 24 0 36 3 4 2
15 -4 25 -5 11 -6 19 -1 19 4 0 8 9 8 20 0 11 -4 20 -9 20 -4 0 -5 5 -1 11 9
15 13 139 4 134 -4 -2 -7 2 -7 10 0 8 4 12 9 9 4 -3 8 4 8 16 0 14 -4 19 -12
14 -10 -5 -10 -4 -1 6 6 7 9 19 6 28 -5 11 -3 13 7 7 10 -6 10 -4 3 10 -6 10
-8 26 -6 36 3 11 0 26 -7 34 -11 13 -10 14 4 9 9 -3 16 -1 16 5 0 6 -4 11 -8
11 -12 0 -9 43 3 52 7 5 6 8 -1 8 -7 0 -8 17 -4 50 4 28 3 53 -2 56 -5 3 -1
13 9 21 10 8 13 12 7 9 -15 -8 -15 76 0 86 8 5 7 8 -1 8 -16 0 -17 36 -3 45 8
5 8 11 0 20 -8 10 -8 15 0 20 8 5 8 10 0 20 -8 10 -7 14 2 18 10 4 10 6 -1 6
-10 1 -11 4 -2 15 8 10 9 16 1 21 -5 3 -10 11 -10 16 0 6 4 8 9 4 9 -5 9 2 1
40 -1 6 -1 13 0 18 6 19 5 33 -5 39 -6 5 -5 8 4 8 11 0 11 3 1 15 -10 12 -10
15 0 15 9 0 10 3 1 13 -8 10 -7 17 2 26 9 9 9 14 -3 21 -8 5 -10 10 -5 10 6 0
11 9 12 20 1 13 -2 18 -10 13 -9 -5 -9 -3 -1 8 14 19 16 61 2 53 -7 -4 -7 0 0
12 5 11 9 73 8 139 l-1 120 -1175 3 -1175 2 -20 -31z m-9000 -5555 c17 0 37 3
46 7 9 5 20 5 24 1 11 -12 95 -10 95 2 0 8 3 8 8 1 9 -13 201 -14 221 -1 9 6
12 5 7 -2 -4 -7 13 -10 51 -8 32 1 66 -2 77 -7 12 -6 16 -5 12 1 -3 6 11 8 37
6 23 -1 48 -3 55 -3 18 -1 17 -384 -1 -400 -8 -6 -17 -8 -20 -4 -4 3 -7 -1 -7
-11 0 -9 -4 -15 -9 -11 -5 3 -12 1 -16 -5 -4 -6 -9 -8 -13 -6 -4 2 -13 -2 -20
-10 -7 -8 -9 -14 -5 -15 4 0 -3 -5 -17 -11 -14 -6 -28 -10 -32 -10 -5 1 -8 -5
-8 -14 0 -8 -4 -12 -10 -9 -5 3 -10 1 -10 -5 0 -6 -4 -8 -10 -5 -5 3 -10 1
-10 -5 0 -6 -11 -15 -25 -20 -14 -5 -25 -14 -25 -20 0 -5 -5 -10 -11 -10 -6 0
-24 -10 -39 -22 -78 -63 -18 -58 -654 -58 -553 0 -579 1 -560 18 10 9 48 41
84 70 36 29 81 66 100 82 19 16 42 30 50 30 13 0 13 1 0 10 -13 8 -12 10 3 10
9 0 17 5 17 11 0 5 5 7 10 4 6 -3 10 -1 10 5 0 6 5 8 12 4 8 -5 9 -2 5 10 -4
10 -3 15 3 11 6 -3 13 1 16 9 3 9 10 13 15 10 5 -3 9 -1 9 5 0 5 16 19 35 31
19 12 33 26 29 31 -3 5 2 9 10 9 14 0 46 25 107 83 11 9 19 15 19 12 0 -3 17
11 38 31 20 19 49 43 65 52 15 9 27 22 27 29 0 7 4 12 9 11 5 -2 24 10 42 27
43 38 99 66 113 57 6 -3 25 -7 41 -8z m7190 -715 c-4 -5 -52 -63 -107 -127
-149 -173 -217 -280 -291 -452 -127 -299 -187 -614 -187 -1000 0 -264 22 -446
81 -670 45 -168 135 -388 208 -505 60 -97 92 -145 101 -150 26 -16 -1 -37
-127 -102 -123 -62 -316 -144 -443 -186 -25 -9 -54 -19 -64 -23 -17 -7 -17 -5
2 14 12 12 27 22 34 22 6 0 9 2 6 5 -8 8 59 75 73 75 7 0 9 3 6 6 -4 4 16 28
43 54 27 26 47 50 44 53 -3 3 4 8 15 12 20 6 26 17 21 40 -1 5 1 7 5 3 10 -9
85 74 78 86 -3 5 -1 6 4 3 6 -4 18 4 27 17 8 14 26 36 38 49 88 93 89 96 60
149 -40 71 -109 258 -141 378 -59 224 -81 406 -81 670 0 386 60 701 187 1000
75 174 135 268 295 456 103 123 130 152 113 123z m-2847 -1604 c12 2 27 7 32
10 6 3 10 3 10 -2 0 -4 18 -8 40 -8 22 -1 40 3 40 8 0 6 5 5 13 0 6 -5 34 -11
62 -12 27 -2 59 -8 70 -14 18 -9 19 -9 5 8 -14 17 -14 17 6 7 12 -6 24 -8 28
-5 3 3 6 1 6 -5 0 -6 17 -11 38 -12 47 -1 75 -4 87 -12 14 -8 78 -22 89 -20 4
2 14 -2 20 -8 7 -5 16 -7 19 -3 4 3 7 2 7 -3 0 -5 12 -11 26 -12 27 -2 54 -23
54 -41 0 -6 6 -11 13 -11 8 0 7 -4 -3 -10 -10 -6 -11 -10 -2 -10 6 0 12 -7 12
-15 0 -8 3 -15 8 -15 4 0 12 -11 19 -25 7 -15 7 -25 1 -25 -5 0 -2 -7 7 -16 9
-9 14 -23 11 -30 -3 -8 -1 -14 5 -14 6 0 9 -7 6 -15 -4 -8 -2 -17 4 -21 6 -3
8 -12 5 -19 -2 -7 1 -18 7 -25 9 -10 9 -11 -3 -5 -13 8 -13 7 -1 -8 11 -14 11
-17 0 -17 -9 0 -10 -3 -3 -8 15 -11 17 -82 2 -82 -9 0 -9 -3 2 -11 12 -9 13
-12 1 -16 -11 -5 -11 -7 0 -14 12 -7 12 -12 1 -30 -11 -17 -11 -20 0 -14 10 6
10 5 1 -5 -6 -7 -9 -19 -6 -26 3 -8 0 -14 -7 -14 -6 0 -8 -5 -5 -10 4 -6 2
-17 -4 -24 -6 -7 -9 -22 -6 -34 2 -12 -1 -22 -6 -22 -6 0 -8 -4 -4 -9 3 -5 1
-12 -5 -16 -5 -3 -10 -15 -10 -26 0 -10 -5 -19 -12 -19 -6 0 -9 -3 -5 -6 3 -4
-4 -25 -15 -48 -12 -22 -22 -45 -23 -49 0 -4 -5 -11 -11 -15 -9 -6 -25 -39
-25 -52 0 -3 -7 -9 -15 -13 -8 -5 -12 -12 -9 -18 4 -5 1 -9 -5 -9 -6 0 -14 -8
-17 -17 -4 -10 -15 -26 -26 -35 -11 -10 -16 -18 -12 -18 5 0 0 -7 -11 -15 -10
-8 -16 -15 -12 -15 4 0 -5 -13 -20 -29 -45 -47 -67 -76 -64 -83 1 -5 -1 -7 -6
-5 -9 3 -92 -82 -92 -94 0 -5 -3 -8 -7 -7 -5 2 -32 -20 -60 -49 -29 -28 -53
-49 -53 -47 0 2 -18 -14 -40 -36 -22 -22 -40 -37 -40 -34 0 3 -7 -1 -15 -8
-48 -44 -45 -95 -45 702 l0 740 -207 0 c-202 0 -241 4 -152 16 24 3 48 10 53
15 6 5 15 4 24 -3 9 -8 16 -8 20 -2 4 6 18 11 32 11 69 1 122 8 126 15 3 5 11
4 18 -1 7 -6 22 -9 34 -6z"/>
</g>
</svg>
